Coordinates
version=1
nRows=24
nColumns=19
inDegrees=yes

Units are S.I. units (second, meters, Newtons, ...)
If the header above contains a line with 'inDegrees', this indicates whether rotational values are in degrees (yes) or radians (no).

endheader
time	pelvis_tilt	pelvis_list	pelvis_rotation	pelvis_tx	pelvis_ty	pelvis_tz	hip_flexion_r	hip_adduction_r	hip_rotation_r	knee_angle_r	knee_angle_r_beta	ankle_angle_r	hip_flexion_l	hip_adduction_l	hip_rotation_l	knee_angle_l	knee_angle_l_beta	ankle_angle_l
     14.87333333	      0.55650462	     -3.47568376	     -4.57770424	      2.16693024	      1.05403887	      1.05999826	     22.40695754	      6.11321249	     -2.98676792	     24.37702887	      0.42545942	     -0.83702342	    -12.53974315	     -1.16420956	     -7.70137353	     49.79507096	      0.86908794	    -19.84413446
     14.88000000	      1.03386447	     -3.86646279	     -4.56058230	      2.16615684	      1.04963747	      1.06006465	     21.91664364	      6.45948666	     -3.39626567	     25.69770306	      0.44850953	      0.12127752	    -11.76328705	     -1.64147484	     -7.31155816	     53.02979137	      0.92554446	    -18.94337797
     14.88666667	      1.91366997	     -4.25660666	     -4.77141521	      2.16515650	      1.04542151	      1.06036466	     20.96728627	      6.90393433	     -3.36725930	     27.15442240	      0.47393408	      1.43176275	    -11.45313955	     -2.08907169	     -7.30430893	     56.12575750	      0.97957926	    -18.23233062
     14.89333333	      2.62085346	     -4.85961619	     -4.89519073	      2.16411886	      1.04042755	      1.06068222	     20.29590138	      7.44639102	     -3.91331691	     28.97906842	      0.50578016	      3.02885205	    -10.88410447	     -2.96501834	     -7.48894568	     59.41337101	      1.03695894	    -17.30911564
     14.90000000	      2.80640190	     -5.35946749	     -4.97206807	      2.16279695	      1.03483061	      1.06101055	     20.19921832	      7.94201709	     -4.29852391	     30.88832881	      0.53910304	      4.71260267	     -9.58143516	     -3.81404409	     -7.49758788	     62.82889717	      1.09657112	    -16.55825100
     14.90666667	      3.26673660	     -5.95781921	     -5.21177241	      2.16124775	      1.02943434	      1.06158100	     19.76783378	      8.59550530	     -4.43193544	     32.83430724	      0.57306677	      6.62182323	     -8.61211158	     -4.78654397	     -7.75507594	     66.11262247	      1.15388294	    -15.91051981
     14.91333333	      3.68064869	     -6.64523600	     -5.47968847	      2.15951462	      1.02403968	      1.06225673	     19.33396574	      9.37630886	     -4.45398297	     34.74218841	      0.60636558	      8.59294763	     -7.55537818	     -5.92339345	     -8.03716900	     69.35969808	      1.21055510	    -15.32982861
     14.92000000	      3.87072316	     -7.26868324	     -5.80027454	      2.15751455	      1.01854339	      1.06303098	     19.15034921	     10.12768264	     -4.35679164	     36.69329332	      0.64041878	     10.59717623	     -6.17762780	     -7.01545644	     -8.23197671	     72.55906116	      1.26639452	    -14.81428671
     14.92666667	      3.89655893	     -7.93622950	     -6.14432444	      2.15536487	      1.01317737	      1.06391395	     19.06897555	     10.96865538	     -4.14835133	     38.51134603	      0.67214979	     12.52017984	     -4.57573455	     -8.21626251	     -8.35423036	     75.67587182	      1.32079313	    -14.34065357
     14.93333333	      4.07743677	     -8.70539161	     -6.47672142	      2.15315514	      1.00838687	      1.06476800	     18.69008565	     11.91052404	     -3.85294274	     40.11073743	      0.70006443	     14.33404004	     -3.14019717	     -9.52127140	     -8.40589189	     78.61200921	      1.37203839	    -13.92395646
     14.94000000	      3.83979966	     -9.27489793	     -6.81206689	      2.15074035	      1.00362697	      1.06566985	     18.75349540	     12.68172967	     -3.49255876	     41.65488879	      0.72701496	     16.02299970	     -1.11346742	    -10.63734437	     -8.23171426	     81.45007916	      1.42157206	    -13.50600054
     14.94666667	      3.70024626	     -9.85591764	     -7.09815464	      2.14834174	      0.99957732	      1.06650292	     18.56986601	     13.44171986	     -3.09422929	     42.93211831	      0.74930682	     17.49791734	      0.83527703	    -11.74264611	     -7.94050702	     84.04932464	      1.46693745	    -13.13160093
     14.95333333	      3.94631950	    -10.33851300	     -7.32767055	      2.14598262	      0.99661206	      1.06716093	     17.84273536	     14.01990299	     -2.64493007	     43.99186727	      0.76780293	     18.98433355	      2.34835737	    -12.61527708	     -7.57326086	     86.29722108	      1.50617064	    -12.66821589
     14.96000000	      3.20923178	    -10.61696258	     -7.49392527	      2.14362989	      0.99321023	      1.06780354	     18.13559180	     14.44444190	     -2.33611739	     44.88242834	      0.78334615	     20.04706398	      5.17240590	    -13.38343283	     -6.86069613	     88.52996601	      1.54513939	    -12.28688045
     14.96666667	      3.10544313	    -10.87911905	     -7.53424874	      2.14150758	      0.99124978	      1.06820235	     17.54784212	     14.73062456	     -2.02267195	     45.43813606	      0.79304508	     21.07501310	      7.23432007	    -13.99304495	     -6.16373148	     90.32805130	      1.57652190	    -11.84622549
     14.97333333	      3.30181857	    -11.07632441	     -7.48611158	      2.13964623	      0.99038014	      1.06843586	     16.44755928	     14.87996979	     -1.69105150	     45.66267913	      0.79696410	     21.99547222	      8.92028714	    -14.45759380	     -5.49615376	     91.75258136	      1.60138464	    -11.34209586
     14.98000000	      3.63868658	    -10.97595308	     -7.59953443	      2.13776157	      0.99038851	      1.06870383	     15.12430373	     14.71684277	     -1.11432067	     45.78721687	      0.79913769	     22.58357975	     10.36799133	    -14.54475665	     -5.11390031	     92.79379613	      1.61955727	    -11.00647337
     14.98666667	      3.51231566	    -11.10466604	     -7.04778083	      2.13648765	      0.99040989	      1.06827685	     14.07631926	     14.64555491	     -1.37925461	     45.34073720	      0.79134515	     23.41035635	     12.57926147	    -14.80012030	     -3.91218308	     93.77559374	      1.63669287	    -10.38107463
     14.99333333	      3.62183243	    -10.93510414	     -6.79426875	      2.13527198	      0.99139585	      1.06808319	     12.67472666	     14.31852949	     -1.21830076	     44.79148529	      0.78175890	     23.99519106	     14.30377567	    -14.72018162	     -3.25594526	     94.30741728	      1.64597494	     -9.85857043
     15.00000000	      3.64708467	    -10.59435983	     -6.73158445	      2.13432434	      0.99294952	      1.06806709	     11.22321818	     13.89867176	     -0.74948939	     44.04106207	      0.76866154	     24.46009463	     15.94197128	    -14.51287621	     -2.94689027	     94.48518274	      1.64907753	     -9.35547129
     15.00666667	      3.94221111	    -10.46697037	     -6.01675335	      2.13362311	      0.99511811	      1.06735364	      9.33212707	     13.52911409	     -1.03889341	     42.85323722	      0.74793008	     24.79900774	     17.43937353	    -14.31370488	     -2.02767024	     94.49609323	      1.64926796	     -8.84410317
     15.01333333	      3.84895980	    -10.03369829	     -5.86397255	      2.13312675	      0.99750605	      1.06724338	      7.77424614	     13.03404521	     -0.65217507	     41.62535625	      0.72649952	     25.02311360	     19.03911054	    -13.97872357	     -1.82883848	     94.14075961	      1.64306622	     -8.35735115
     15.02000000	      4.40752647	     -9.78664338	     -5.20847352	      2.13305757	      1.00101269	      1.06664207	      5.28418497	     12.60297821	     -0.77327041	     39.87171814	      0.69589276	     25.03600282	     19.88759712	    -13.69313470	     -1.35449739	     93.48731401	      1.63166144	     -7.85394359
     15.02666667	      4.03818437	     -9.24267202	     -5.09595037	      2.13306669	      1.00388401	      1.06657284	      3.85989582	     12.05521082	     -0.36393637	     38.31388637	      0.66870347	     24.94055999	     21.53942212	    -13.25780546	     -1.36778764	     92.62198773	      1.61655865	     -7.41430526
